<?xml version="1.0" encoding="UTF-8" standalone="no"?><!DOCTYPE svg PUBLIC "-//W3C//DTD SVG 1.1//EN" "http://www.w3.org/Graphics/SVG/1.1/DTD/svg11.dtd"><svg width="100%" height="100%" viewBox="0 0 864 864" version="1.1" xmlns="http://www.w3.org/2000/svg" xmlns:xlink="http://www.w3.org/1999/xlink" xml:space="preserve" xmlns:serif="http://www.serif.com/" style="fill-rule:evenodd;clip-rule:evenodd;stroke-linejoin:round;stroke-miterlimit:2;"><path d="M762,576c-55.596,127.098 -182.498,216 -330,216c-147.502,0 -274.404,-88.902 -330,-216l660.001,-0Z" style="fill:#a0bef5;"/><path d="M775.492,324c10.725,34.099 16.508,70.38 16.508,108c0,37.62 -5.783,73.901 -16.508,108l-686.984,0c-10.725,-34.099 -16.508,-70.38 -16.508,-108c0,-37.62 5.783,-73.901 16.508,-108l686.984,-0Z" style="fill:#91afb3;"/><path d="M102,288c55.596,-127.098 182.498,-216 330,-216c147.502,0 274.404,88.902 330,216l-660.001,0Z" style="fill:#6395ee;"/></svg>