<?xml version="1.0" encoding="UTF-8" standalone="no"?><!DOCTYPE svg PUBLIC "-//W3C//DTD SVG 1.1//EN" "http://www.w3.org/Graphics/SVG/1.1/DTD/svg11.dtd"><svg width="100%" height="100%" viewBox="0 0 1409 347" version="1.1" xmlns="http://www.w3.org/2000/svg" xmlns:xlink="http://www.w3.org/1999/xlink" xml:space="preserve" xmlns:serif="http://www.serif.com/" style="fill-rule:evenodd;clip-rule:evenodd;stroke-linejoin:round;stroke-miterlimit:2;"><rect x="440.824" y="313.192" width="28.979" height="31.132" style="fill:#a0bef5;"/><rect x="440.824" y="275.43" width="28.979" height="32.368" style="fill:#91afb3;"/><path d="M469.804,270.035l0,-4.882l31.369,0l0,-25.394l-91.718,0l0,25.394l31.369,0l0,4.882l28.979,0Z" style="fill:#6395ee;"/><path d="M551.364,275.43l-28.979,0l0,32.368l28.979,0l0,-3.208l37.195,0l0,3.208l28.979,0l0,-32.368l-28.979,0l0,3.466l-37.195,0l0,-3.466Z" style="fill:#91afb3;"/><rect x="588.56" y="239.759" width="28.979" height="30.276" style="fill:#6395ee;"/><rect x="522.385" y="239.759" width="28.979" height="30.276" style="fill:#6395ee;"/><rect x="522.385" y="313.192" width="28.979" height="31.132" style="fill:#a0bef5;"/><rect x="588.56" y="313.192" width="28.979" height="31.132" style="fill:#a0bef5;"/><path d="M673.257,275.43l-28.681,0l0,32.368l28.681,0l0,-4.702l50.191,0l0,-22.855l-50.191,0l0,-4.811Z" style="fill:#91afb3;"/><path d="M673.257,270.035l0,-5.629l55.419,0l0,-24.647l-84.1,0l0,30.276l28.681,0Z" style="fill:#6395ee;"/><path d="M644.577,313.192l0,31.132l84.847,0l0,-24.647l-56.166,0l0,-6.485l-28.681,0Z" style="fill:#a0bef5;"/><path d="M823.315,275.43l-29.528,0l10.743,32.368l50.565,0l7.964,-22.926l8.021,22.926l50.658,0l10.743,-32.368l-28.931,0l-7.479,24.827l-8.235,-24.827l-48.808,0l-8.235,24.827l-7.479,-24.827Z" style="fill:#91afb3;"/><path d="M821.69,270.035l-9.12,-30.276l-30.623,0l10.049,30.276l29.694,0Z" style="fill:#6395ee;"/><path d="M886.047,270.035l-10.142,-30.575l-24.946,0l-10.142,30.575l45.229,0Z" style="fill:#6395ee;"/><path d="M934.272,270.035l10.049,-30.276l-30.025,0l-9.12,30.276l29.096,0Z" style="fill:#6395ee;"/><path d="M872.968,313.192l11.154,31.879l25.245,0l10.581,-31.879l-46.98,0Z" style="fill:#a0bef5;"/><path d="M806.32,313.192l10.581,31.879l25.245,0l11.075,-31.879l-46.901,0Z" style="fill:#a0bef5;"/><path d="M989.226,275.43l-31.862,0c-1.686,5.236 -2.587,10.818 -2.587,16.612l0,0.299c0,5.379 0.767,10.566 2.212,15.457l31.918,0c-2.826,-4.56 -4.404,-10.018 -4.404,-15.756l0,-0.299c0,-6.019 1.688,-11.681 4.722,-16.313Z" style="fill:#91afb3;"/><path d="M1064.936,275.43l-32.07,0c3.182,4.725 4.966,10.51 4.966,16.612l0,0.299c0,5.653 -1.489,10.991 -4.192,15.457l31.449,0c1.513,-4.987 2.319,-10.277 2.319,-15.756l0,-0.299c0,-5.694 -0.859,-11.172 -2.472,-16.313Z" style="fill:#91afb3;"/><path d="M1062.915,270.035c-8.377,-19.113 -27.72,-32.368 -51.673,-32.368c-23.849,0 -43.291,13.303 -51.812,32.368l34.479,0c4.44,-3.874 10.258,-6.226 17.034,-6.226c6.772,0 12.631,2.359 17.137,6.226l34.835,0Z" style="fill:#6395ee;"/><path d="M958.905,313.192c8.169,19.572 27.73,33.223 52.039,33.223c24.204,0 43.869,-13.702 52.185,-33.223l-33.794,0c-4.564,4.38 -10.763,7.082 -18.092,7.082c-7.19,0 -13.363,-2.71 -17.961,-7.082l-34.377,-0Z" style="fill:#a0bef5;"/><path d="M1119.99,275.43l-28.979,0l0,32.368l71.436,-0c12.893,-5.549 21.328,-16.13 21.328,-32.038c0,0 -0,-0.319 -0,-0.329l-29.234,0c0.07,0.584 0.105,1.192 0.105,1.823l0,0.299c0,7.618 -5.676,12.398 -15.535,12.398l-19.12,0l0,-14.52Z" style="fill:#91afb3;"/><path d="M1183.461,270.035c-0.933,-7.759 -3.943,-14.04 -8.948,-18.923c-7.021,-7.17 -18.075,-11.353 -34.058,-11.353l-49.444,0l0,30.276l28.979,0l0,-5.181l18.971,0c6.263,0 10.972,1.74 13.526,5.181l30.974,-0Z" style="fill:#6395ee;"/><path d="M1133.044,313.192l20.706,31.132l33.461,0l-21.308,-31.132l-32.859,0Z" style="fill:#a0bef5;"/><rect x="1091.011" y="313.192" width="28.979" height="31.132" style="fill:#a0bef5;"/><rect x="1206.928" y="275.43" width="28.979" height="32.368" style="fill:#91afb3;"/><rect x="1206.928" y="239.759" width="28.979" height="30.276" style="fill:#6395ee;"/><path d="M1206.928,313.192l0,31.132l79.619,0l0,-25.394l-50.639,0l0,-5.738l-28.979,0Z" style="fill:#a0bef5;"/><rect x="1307.46" y="275.43" width="28.979" height="32.368" style="fill:#91afb3;"/><path d="M1402.572,270.035c-7.999,-18.435 -27.072,-30.276 -54.78,-30.276l-40.332,0l0,30.276l28.979,0l0,-4.583l11.801,0c7.005,0 13.058,1.587 17.784,4.583l36.547,0Z" style="fill:#6395ee;"/><path d="M1404.523,307.797c1.502,-5.014 2.274,-10.398 2.274,-16.055l0,-0.299c0,-5.673 -0.766,-11.039 -2.257,-16.014l-32.571,0c3.282,4.264 5.102,9.808 5.102,16.462l0,0.299c0,6.24 -1.572,11.48 -4.429,15.606l31.882,-0Z" style="fill:#91afb3;"/><path d="M1307.46,313.192l0,31.132l39.735,0c27.983,0 47.298,-12.382 55.369,-31.132l-35.211,0c-4.897,3.561 -11.433,5.439 -19.112,5.439l-11.801,0l0,-5.439l-28.979,0Z" style="fill:#a0bef5;"/><path d="M285.551,237.535l-283.647,0l-0,32.5l273.326,0c2.432,-11.584 5.906,-22.564 10.321,-32.5" style="fill:#6395ee;fill-rule:nonzero;"/><path d="M271.411,289.406c0,-4.661 0.174,-9.359 0.544,-13.976l-270.002,0l-0,32.368l270.176,0c-0.472,-6.105 -0.718,-12.25 -0.718,-18.392" style="fill:#91afb3;fill-rule:nonzero;"/><path d="M275.305,313.192l-273.351,0l-0,31.132l283.597,0c-4.44,-9.474 -7.888,-19.993 -10.221,-31.132" style="fill:#a0bef5;fill-rule:nonzero;"/><g><path d="M112.8,218.4c64.8,0 113.4,-48.9 113.4,-109.2l0,-0.6c0,-60.3 -48,-108.6 -112.8,-108.6c-64.8,0 -113.4,48.9 -113.4,109.2l0,0.6c0,60.3 48,108.6 112.8,108.6Zm0.6,-52.5c-31.8,0 -53.7,-26.4 -53.7,-56.7l0,-0.6c0,-30.3 21.3,-56.1 53.1,-56.1c32.1,0 54,26.4 54,56.7l0,0.6c0,30.3 -21.3,56.1 -53.4,56.1Z" style="fill:#6395ee;fill-rule:nonzero;"/><path d="M356.575,218.4c59.7,0 98.4,-30.325 98.4,-99.551l0,-118.849l-59.1,0l0,120.687c0,30.019 -15.3,44.109 -38.7,44.109c-23.4,0 -38.7,-14.703 -38.7,-45.64l0,-119.155l-59.1,0l0,120.38c0,67.082 37.5,98.02 97.2,98.02Z" style="fill:#6395ee;fill-rule:nonzero;"/><path d="M550.5,218.4l58.2,0l0,-165.36l63,0l0,-53.04l-184.2,0l0,53.04l63,0l0,165.36Z" style="fill:#6395ee;fill-rule:nonzero;"/><path d="M776.525,217.2c51,0 84.9,-25.5 84.9,-68.4l0,-0.6c0,-39.3 -30,-54.9 -78.3,-65.4c-29.1,-6.6 -36.3,-10.8 -36.3,-20.4l0,-0.6c0,-7.5 6.9,-13.5 21,-13.5c18.6,0 39.6,7.2 58.8,20.7l29.1,-41.1c-22.8,-18.3 -50.7,-27.9 -86.4,-27.9c-50.4,0 -81.3,28.2 -81.3,67.2l0,0.6c0,43.2 34.5,55.8 79.2,66c28.5,6.6 35.4,11.4 35.4,20.1l0,0.6c0,9 -8.4,14.4 -24,14.4c-24.3,0 -47.4,-8.7 -68.1,-25.2l-32.4,38.7c25.8,23.1 61.2,34.8 98.4,34.8Z" style="fill:#6395ee;fill-rule:nonzero;"/><rect x="896.875" y="0" width="58.5" height="218.4" style="fill:#6395ee;fill-rule:nonzero;"/><path d="M1003.125,218.4l79.8,0c75.6,0 119.7,-46.8 119.7,-109.824l0,-0.624c0,-63.024 -43.5,-107.952 -118.5,-107.952l-81,0l0,218.4Zm58.2,-53.664l0,-111.072l23.7,0c34.8,0 57.9,20.28 57.9,55.224l0,0.624c0,35.256 -23.1,55.224 -57.9,55.224l-23.7,0Z" style="fill:#6395ee;fill-rule:nonzero;"/><path d="M1238.4,218.4l170.4,0l0,-51.48l-112.8,0l0,-34.632l100.8,0l0,-47.736l-100.8,0l0,-33.072l111.3,0l0,-51.48l-168.9,0l0,218.4Z" style="fill:#6395ee;fill-rule:nonzero;"/></g><path d="M389.046,313.192c-8.331,19.046 -27.347,32.368 -49.45,32.368c-22.103,0 -41.119,-13.322 -49.45,-32.368l98.901,-0Z" style="fill:#a0bef5;"/><path d="M391.068,275.43c1.607,5.11 2.474,10.546 2.474,16.184c0,5.637 -0.867,11.074 -2.474,16.184l-102.944,0c-1.607,-5.11 -2.474,-10.546 -2.474,-16.184c0,-5.637 0.867,-11.074 2.474,-16.184l102.944,-0Z" style="fill:#91afb3;"/><path d="M290.145,270.035c8.331,-19.046 27.347,-32.368 49.45,-32.368c22.103,0 41.119,13.322 49.45,32.368l-98.901,0Z" style="fill:#6395ee;"/></svg>