<?xml version="1.0" encoding="UTF-8" standalone="no"?>
<!DOCTYPE svg PUBLIC "-//W3C//DTD SVG 1.1//EN" "http://www.w3.org/Graphics/SVG/1.1/DTD/svg11.dtd">
<svg width="100%" height="100%" viewBox="0 0 3139 2159" version="1.1" xmlns="http://www.w3.org/2000/svg" xmlns:xlink="http://www.w3.org/1999/xlink" xml:space="preserve" xmlns:serif="http://www.serif.com/" style="fill-rule:evenodd;clip-rule:evenodd;stroke-linejoin:round;stroke-miterlimit:2;">
    <g transform="matrix(18.260264,-12.785975,12.785975,18.260264,558.728536,1600.015543)">
        <path d="M20,-12.897L20,12.897C20,16.817 16.817,20 12.897,20L-12.897,20C-16.817,20 -20,16.817 -20,12.897L-20,-12.897C-20,-16.817 -16.817,-20 -12.897,-20L12.897,-20C16.817,-20 20,-16.817 20,-12.897Z" style="fill:rgb(255,105,180);"/>
    </g>
    <g transform="matrix(18.260264,-12.785975,12.785975,18.260264,1326.646607,1064.414144)">
        <path d="M20,-11.028L20,11.028C20,15.98 15.98,20 11.028,20L-11.028,20C-15.98,20 -20,15.98 -20,11.028L-20,-11.028C-20,-15.98 -15.98,-20 -11.028,-20L11.028,-20C15.98,-20 20,-15.98 20,-11.028Z" style="fill:rgb(119,163,255);"/>
    </g>
    <g transform="matrix(18.260264,-12.785975,12.785975,18.260264,2092.590739,525.993666)">
        <path d="M20,-9.159L20,9.159C20,15.142 15.142,20 9.159,20L-9.159,20C-15.142,20 -20,15.142 -20,9.159L-20,-9.159C-20,-15.142 -15.142,-20 -9.159,-20L9.159,-20C15.142,-20 20,-15.142 20,-9.159Z" style="fill:rgb(217,192,140);"/>
    </g>
    <g transform="matrix(11.263341,-7.886676,7.886676,11.263341,1764.684601,1689.997232)">
        <path d="M20,-12.424L20,12.424C20,16.605 16.605,20 12.424,20L-12.424,20C-16.605,20 -20,16.605 -20,12.424L-20,-12.424C-20,-16.605 -16.605,-20 -12.424,-20L12.424,-20C16.605,-20 20,-16.605 20,-12.424Z" style="fill:rgb(155,89,182);"/>
    </g>
    <g transform="matrix(18.260264,-12.785975,12.785975,18.260264,2629.601677,1292.924768)">
        <path d="M20,-7.187L20,7.187C20,14.258 14.258,20 7.187,20L-7.187,20C-14.258,20 -20,14.258 -20,7.187L-20,-7.187C-20,-14.258 -14.258,-20 -7.187,-20L7.187,-20C14.258,-20 20,-14.258 20,-7.187Z" style="fill:rgb(75,227,110);"/>
    </g>
</svg>
