<?xml version="1.0" encoding="UTF-8" standalone="no"?>
<!DOCTYPE svg PUBLIC "-//W3C//DTD SVG 1.1//EN" "http://www.w3.org/Graphics/SVG/1.1/DTD/svg11.dtd">
<svg width="100%" height="100%" viewBox="0 0 658 498" version="1.1" xmlns="http://www.w3.org/2000/svg" xmlns:xlink="http://www.w3.org/1999/xlink" xml:space="preserve" xmlns:serif="http://www.serif.com/" style="fill-rule:evenodd;clip-rule:evenodd;stroke-linejoin:round;stroke-miterlimit:2;">
    <g transform="matrix(1,0,0,1,-183,-272.096725)">
        <g transform="matrix(1,0,0,1,0,-30.096725)">
            <path d="M193,354C284,301 398,297 512,350L512,758C404,712 287,718 193,772L193,354Z" style="fill:url(#_Linear1);fill-rule:nonzero;stroke:rgb(145,175,179);stroke-width:20px;"/>
        </g>
        <g transform="matrix(1,0,0,1,0,-30.096725)">
            <path d="M831,354C740,301 626,297 512,350L512,758C620,712 737,718 831,772L831,354Z" style="fill:url(#_Linear2);fill-rule:nonzero;stroke:rgb(145,175,179);stroke-width:20px;"/>
        </g>
        <g transform="matrix(1,0,0,1,0,-30.096725)">
            <path d="M512,350C406,304 287,306 193,354L193,386C290,339 405,343 512,390C619,343 734,339 831,386L831,354C737,306 618,304 512,350Z" style="fill:rgb(255,105,180);fill-opacity:0.72;fill-rule:nonzero;"/>
        </g>
        <g transform="matrix(1,0,0,1,0,-30.096725)">
            <path d="M512,350L512,758" style="fill:none;fill-rule:nonzero;stroke:rgb(207,198,185);stroke-width:20px;stroke-linecap:round;stroke-linejoin:miter;stroke-miterlimit:4;"/>
        </g>
        <g transform="matrix(1,0,0,1,0,-30.096725)">
            <path d="M268,456C340,432 413,438 470,466" style="fill:none;fill-rule:nonzero;stroke:rgb(27,54,93);stroke-width:10px;stroke-linecap:round;stroke-linejoin:miter;stroke-miterlimit:4;"/>
        </g>
        <g transform="matrix(1,0,0,1,0,-30.096725)">
            <path d="M268,538C354,507 427,513 482,548" style="fill:none;fill-rule:nonzero;stroke:rgb(155,89,182);stroke-width:14px;stroke-linecap:round;stroke-linejoin:miter;stroke-miterlimit:4;"/>
        </g>
        <g transform="matrix(1,0,0,1,0,-30.096725)">
            <path d="M270,620C352,589 428,596 482,630" style="fill:none;fill-rule:nonzero;stroke:rgb(160,190,245);stroke-width:14px;stroke-linecap:round;stroke-linejoin:miter;stroke-miterlimit:4;"/>
        </g>
        <g transform="matrix(1,0,0,1,0,-30.096725)">
            <path d="M556,466C611,438 684,432 756,456" style="fill:none;fill-rule:nonzero;stroke:rgb(27,54,93);stroke-width:10px;stroke-linecap:round;stroke-linejoin:miter;stroke-miterlimit:4;"/>
        </g>
        <g transform="matrix(1,0,0,1,0,-30.096725)">
            <path d="M542,548C597,513 670,507 756,538" style="fill:none;fill-rule:nonzero;stroke:rgb(155,89,182);stroke-width:14px;stroke-linecap:round;stroke-linejoin:miter;stroke-miterlimit:4;"/>
        </g>
        <g transform="matrix(1,0,0,1,0,-30.096725)">
            <path d="M542,630C596,596 672,589 754,620" style="fill:none;fill-rule:nonzero;stroke:rgb(160,190,245);stroke-width:14px;stroke-linecap:round;stroke-linejoin:miter;stroke-miterlimit:4;"/>
        </g>
    </g>
    <defs>
        <linearGradient id="_Linear1" x1="0" y1="0" x2="1" y2="0" gradientUnits="userSpaceOnUse" gradientTransform="matrix(319,459.80655,-459.80655,319,193,312.19345)"><stop offset="0" style="stop-color:rgb(244,240,231);stop-opacity:0"/><stop offset="1" style="stop-color:rgb(226,219,207);stop-opacity:0"/></linearGradient>
        <linearGradient id="_Linear2" x1="0" y1="0" x2="1" y2="0" gradientUnits="userSpaceOnUse" gradientTransform="matrix(319,459.80655,-459.80655,319,512,312.19345)"><stop offset="0" style="stop-color:rgb(251,248,242);stop-opacity:0"/><stop offset="1" style="stop-color:rgb(232,226,215);stop-opacity:0"/></linearGradient>
    </defs>
</svg>
